<svg width="31" height="17" viewBox="0 0 31 17" fill="none" xmlns="http://www.w3.org/2000/svg">
<g clip-path="url(#clip0)">
<path d="M7.79823 14.1541H6.34463V6.67182H6.56641C7.15855 6.67182 7.74975 6.52918 8.2762 6.25923C8.30091 6.24641 8.32531 6.23264 8.34846 6.21732L13.5345 2.8337C14.2511 2.48211 15.1219 2.56219 15.7632 3.0414L16.1376 3.32043C16.1148 3.35265 16.0929 3.38549 16.0707 3.41771C15.9718 3.5616 15.8767 3.70831 15.7873 3.85814C15.2336 4.7831 14.878 5.82381 14.7472 6.88515C14.2014 6.94396 13.6959 7.18482 13.3024 7.57802C12.8466 8.03378 12.5954 8.64062 12.5954 9.28625C12.5954 10.6179 13.679 11.7014 15.0106 11.7014H20.9389C21.2661 11.7014 21.5742 11.829 21.8053 12.0596C22.0374 12.2923 22.1654 12.6007 22.1657 12.9279C22.1654 13.4165 21.8792 13.857 21.4334 14.0512C21.3818 14.074 21.3352 14.0909 21.2914 14.1031C21.2873 14.1044 21.2836 14.1056 21.2795 14.1069C21.1716 14.1382 21.0571 14.1541 20.9389 14.1541H14.2029C13.7609 14.1541 13.4021 14.5126 13.4021 14.9549C13.4021 15.3972 13.7609 15.7557 14.2029 15.7557H20.9389C21.1456 15.7557 21.3496 15.7332 21.5479 15.6897C21.8842 15.7328 22.2248 15.7563 22.5636 15.7563C26.9075 15.7563 30.4419 12.2222 30.4419 7.878C30.4419 3.53407 26.9075 0 22.5636 0C20.5619 0 18.646 0.762306 17.1962 2.11237L16.7213 1.75797C15.5836 0.908073 14.0318 0.777634 12.7687 1.42608C12.744 1.43859 12.7202 1.45267 12.6968 1.46768L7.51139 4.85098C7.21861 4.99456 6.89266 5.06995 6.56641 5.06995H6.34431V4.78029C6.34431 4.33798 5.98584 3.97951 5.54353 3.97951H0.800781C0.358475 3.97951 0 4.33798 0 4.78029V15.7935C0 16.2358 0.358475 16.5943 0.800781 16.5943H5.54353C5.98584 16.5943 6.34431 16.2358 6.34431 15.7935V15.7557H7.79823C8.24023 15.7557 8.59901 15.3972 8.59901 14.9549C8.59901 14.5126 8.24023 14.1541 7.79823 14.1541V14.1541ZM14.197 9.28625C14.197 9.06853 14.2814 8.86396 14.435 8.71069C14.5151 8.63061 14.6093 8.56961 14.7119 8.52926C14.7553 9.06478 14.8529 9.58904 15.0031 10.0995C14.558 10.0955 14.197 9.73231 14.197 9.28625ZM28.84 7.87831C28.84 11.0129 26.5299 13.6186 23.5223 14.0816C23.6831 13.7206 23.7673 13.3233 23.7673 12.9279C23.7673 12.4428 23.6449 11.9764 23.416 11.5622C23.7635 11.5075 24.0844 11.347 24.3381 11.0933C24.6553 10.7765 24.8298 10.3551 24.8298 9.90685V8.72257C24.8298 7.79729 24.0769 7.04437 23.1516 7.04437H21.9768C21.9345 7.04437 21.9001 7.00996 21.9001 6.96774V5.84977C21.9001 5.80754 21.9345 5.77345 21.9768 5.77345H22.5639H22.5642H22.5645H23.1516C23.1939 5.77345 23.2283 5.80754 23.2283 5.84977C23.2283 6.29208 23.5868 6.65055 24.0291 6.65055C24.4711 6.65055 24.8298 6.29208 24.8298 5.84977C24.8298 4.99706 24.1895 4.29231 23.365 4.1869V3.90944C23.365 3.46713 23.0065 3.10866 22.5642 3.10866C22.1219 3.10866 21.7634 3.46713 21.7634 3.90944V4.1869C20.9386 4.29231 20.2986 4.99706 20.2986 5.84977V6.96774C20.2986 7.89301 21.0515 8.64594 21.9768 8.64594H23.1516C23.1939 8.64594 23.2283 8.68034 23.2283 8.72257V9.90685C23.2283 9.92781 23.2208 9.94595 23.2058 9.96097C23.1908 9.97567 23.1729 9.98318 23.1516 9.98318H21.9768C21.9345 9.98318 21.9001 9.94877 21.9001 9.90685V9.79831C21.9001 9.356 21.5416 8.99753 21.0993 8.99753C20.657 8.99753 20.2986 9.356 20.2986 9.79831V9.90685C20.2986 9.97192 20.3032 10.036 20.3104 10.0995H16.6913C16.4229 9.39323 16.2871 8.64781 16.2871 7.87831C16.2871 6.70498 16.6209 5.5304 17.2496 4.53849C17.4304 4.25352 17.6319 3.9817 17.8555 3.72864C19.047 2.37669 20.7618 1.60156 22.5636 1.60156C26.0245 1.60156 28.84 4.41712 28.84 7.87831V7.87831ZM4.74275 14.9931H1.60156V5.58107H4.74275V14.9931Z" fill="black"/>
</g>
<defs>
<clipPath id="clip0">
<rect width="30.4419" height="16.5943" fill="white"/>
</clipPath>
</defs>
</svg>
