<svg width="21" height="21" viewBox="0 0 21 21" fill="none" xmlns="http://www.w3.org/2000/svg">
<path fill-rule="evenodd" clip-rule="evenodd" d="M12.25 5.25C12.25 5.50149 12.2765 5.74679 12.3269 5.98325L7.88982 8.20181C7.24818 7.4654 6.30344 7 5.25 7C3.317 7 1.75 8.567 1.75 10.5C1.75 12.433 3.317 14 5.25 14C6.30344 14 7.24817 13.5346 7.88982 12.7982L12.3269 15.0168C12.2765 15.2532 12.25 15.4985 12.25 15.75C12.25 17.683 13.817 19.25 15.75 19.25C17.683 19.25 19.25 17.683 19.25 15.75C19.25 13.817 17.683 12.25 15.75 12.25C14.6966 12.25 13.7518 12.7154 13.1102 13.4518L8.67307 11.2333C8.72347 10.9968 8.75 10.7515 8.75 10.5C8.75 10.2485 8.72347 10.0032 8.67307 9.76674L13.1102 7.54819C13.7518 8.2846 14.6966 8.75 15.75 8.75C17.683 8.75 19.25 7.183 19.25 5.25C19.25 3.317 17.683 1.75 15.75 1.75C13.817 1.75 12.25 3.317 12.25 5.25ZM7 10.5C7 11.4665 6.2165 12.25 5.25 12.25C4.2835 12.25 3.5 11.4665 3.5 10.5C3.5 9.5335 4.2835 8.75 5.25 8.75C6.2165 8.75 7 9.5335 7 10.5ZM15.75 7C16.7165 7 17.5 6.2165 17.5 5.25C17.5 4.2835 16.7165 3.5 15.75 3.5C14.7835 3.5 14 4.2835 14 5.25C14 6.2165 14.7835 7 15.75 7ZM17.5 15.75C17.5 16.7165 16.7165 17.5 15.75 17.5C14.7835 17.5 14 16.7165 14 15.75C14 14.7835 14.7835 14 15.75 14C16.7165 14 17.5 14.7835 17.5 15.75Z" fill="black"/>
</svg>
